<svg width="1440" height="587" viewBox="0 0 1440 587" fill="none" xmlns="http://www.w3.org/2000/svg">
<path fill-rule="evenodd" clip-rule="evenodd" d="M0 0H1440V454.575C1229 549.511 1245.5 369.911 743 413.429C349.267 447.528 240 581.17 0 549.511C0 334.914 0 0 0 0Z" fill="#5D7789"/>
<mask id="mask0_137_2" style="mask-type:alpha" maskUnits="userSpaceOnUse" x="-16" y="-10" width="1473" height="597">
<path fill-rule="evenodd" clip-rule="evenodd" d="M-15.9622 204.671C-15.9244 419.342 -15.9244 419.342 -12.7524 410.388C-6.60782 393.039 0.711288 385.312 36.9153 357.961C43.7744 352.779 55.577 343.249 61.2657 338.298C64.1248 335.808 67.8048 332.638 69.4435 331.251C89.2214 314.51 119.162 303.12 188.444 285.979C222.284 277.606 245.885 275.861 264.466 280.356C274.518 282.788 274.298 282.7 297.311 293.448C306.307 297.65 315.277 301.688 317.244 302.423C319.212 303.157 321.282 304.089 321.844 304.494C322.753 305.146 329.693 306.537 338.037 307.74C344.654 308.694 357.459 306.261 374.067 300.894C396.62 293.606 402.873 292.376 420.489 291.756C438.143 291.135 452.883 293.006 467 297.661C476.352 300.744 489.963 306.916 494.928 310.325C496.435 311.359 499.507 313.347 501.756 314.744C504.005 316.14 507.914 318.725 510.444 320.488C522.819 329.111 532.476 334.841 543.667 340.201C567.481 351.606 585.938 355.526 605.629 353.362C620.305 351.749 641.445 344.942 661.222 335.463C690.209 321.569 707.557 315.256 738.4 307.375C756.661 302.71 771.493 298.67 774.477 297.549C776.049 296.959 785.479 294.592 795.433 292.289C813.533 288.102 813.533 288.102 838.067 288.052C857.577 288.012 864.274 288.354 870.778 289.716C875.276 290.657 888.386 293.105 899.911 295.153C920.867 298.877 920.867 298.877 969.933 299.22C1017.41 299.552 1019.31 299.494 1028.69 297.39C1034.02 296.195 1040.19 294.594 1042.41 293.833C1052.15 290.486 1063.74 280.441 1067.83 271.804C1069.64 267.989 1070.04 265.334 1070 257.655C1069.97 252.456 1069.41 246.411 1068.75 244.223C1068.1 242.034 1067.56 236.315 1067.56 231.514C1067.55 214.978 1074.28 206.114 1091.67 199.781C1100.78 196.463 1100.78 196.462 1138.09 196.479C1164.11 196.491 1178.34 196.908 1185.11 197.855C1190.68 198.635 1203.32 199.214 1214.76 199.212C1232.24 199.211 1236.27 198.892 1247.55 196.623C1254.63 195.199 1265.53 192.252 1271.78 190.073C1282.07 186.483 1303.3 176.446 1312.75 170.697C1335.96 156.582 1353.58 148.04 1380.36 137.923C1386.82 135.479 1397.17 131.163 1403.36 128.331C1424.97 118.434 1447.71 110.395 1454.09 110.395C1455.93 110.395 1456 108.441 1456 54.272C1456 -1.84995 1456 -1.84995 1450.46 -4.89266C1447.42 -6.56526 1444.63 -8.39904 1444.27 -8.96719C1443.82 -9.67663 1362.84 -10 1185.71 -10C927.809 -10 927.809 -10 927.246 -0.0699005C926.737 8.9259 926.296 10.6413 922.549 18.1744C917.5 28.3294 909.049 36.9312 895.433 45.7737C875.073 58.9963 852.152 67.5334 834.787 68.3632C822.969 68.9284 816.698 67.7871 810.417 63.9285C803.816 59.8729 801.307 55.3834 801.353 47.71C801.399 40.1878 804.267 33.1701 810.83 24.5225C815.643 18.1804 830.084 3.67826 839.6 -4.37128C846.245 -9.99104 846.245 -9.99105 751.094 -9.99602C655.945 -10 655.945 -10 652.75 -5.20211C627.428 32.8377 604.921 47.3986 563.191 52.7417C549.522 54.4919 523.237 53.477 513.024 50.8045C489.673 44.6942 472.067 27.3792 461.427 0.0574598C457.704 -9.5025 457.704 -9.5025 371.119 -9.75722C323.496 -9.89652 284.533 -9.64777 284.533 -9.20301C284.533 -8.16821 295.44 5.80259 300.482 11.2243C302.603 13.5059 309.893 20.9694 316.68 27.81C331.186 42.4295 337.691 50.495 343.008 60.45C346.22 66.4658 346.889 68.7294 346.889 73.5949C346.889 79.9182 345.513 82.0544 339.45 85.1459C330.821 89.5468 295.327 88.8503 277.812 83.937C256.455 77.9461 243.803 67.9005 220.905 38.755C201.186 13.6551 190.103 2.76087 174.555 -6.80107C169.354 -10 169.354 -10 130.209 -10C91.0645 -10 91.0645 -10 82.255 -7.07072C66.7131 -1.90269 53.5357 0.221635 40.7333 -0.377356C28.8807 -0.93157 14.132 -4.21408 6.52569 -7.99209C3.35169 -9.56717 0.491512 -10 -6.75911 -10C-16 -10 -16 -10 -15.9622 204.671ZM484.889 -8.95028C484.889 -7.36126 492.855 3.92005 497.039 8.25526C508.781 20.4231 527.628 27.3085 552.356 28.4627C567.342 29.1632 576.782 27.9692 588.971 23.831C602.544 19.2231 612.924 11.5825 627.157 -4.27875C632.291 -10 632.291 -10 558.59 -10C507.581 -10 484.889 -9.67663 484.889 -8.95028ZM474.693 116.397C506.677 120.191 531.712 135.761 548.003 161.99C557.055 176.562 554.436 183.955 537.533 191.551C526.791 196.379 515.437 198.412 499.2 198.417C475.141 198.424 458.304 192.852 445.559 180.666C431.96 167.662 416.459 138.405 419.05 130.629C421.174 124.255 422.068 123.089 426.515 120.905C430.694 118.852 437.311 117.1 445.022 116.004C450.585 115.214 466.49 115.425 474.693 116.397ZM1449.36 130.203C1444.8 131.829 1421.62 141.917 1413.58 145.766C1407.1 148.872 1394.5 153.499 1377.29 159.096C1352.66 167.108 1343.14 171.174 1310.3 187.724C1285.15 200.399 1271.69 205.75 1252.29 210.79C1237.56 214.615 1225.15 216.359 1198.4 218.359C1177.2 219.945 1160.38 222.017 1152.91 223.962C1146.51 225.632 1136.35 230.402 1132.33 233.628C1128.82 236.443 1120.71 247.05 1120.71 248.826C1120.71 250.432 1110.59 269.606 1106.84 275.106C1097.26 289.148 1078.71 303.324 1059.38 311.364C1051.6 314.602 1047.94 315.668 1033.31 318.965C1023.34 321.212 995.341 321.506 972.489 319.604C964.337 318.925 950.728 317.904 942.248 317.336C926.445 316.276 918.303 315.15 900.422 311.552C861.154 303.649 863.416 303.921 837.044 303.951C812.511 303.979 812.511 303.979 795.644 307.803C786.368 309.906 777.628 312.059 776.222 312.587C773.828 313.486 760.106 317.126 742.489 321.535C706.582 330.521 697.275 333.912 664.289 350.032C626.049 368.718 610.121 372.874 580.978 371.769C563.802 371.117 554.712 369.656 537.085 364.715C518.356 359.466 503.242 352.82 490.198 344.098C475.769 334.449 466.505 328.744 460.356 325.718C452.679 321.942 439.071 318.35 432.439 318.35C426.966 318.35 406.51 323.242 400.044 326.098C388.23 331.316 375.177 336.258 366.311 338.871C357.442 341.485 355.27 341.73 341.267 341.706C326.433 341.679 325.519 341.554 313.237 337.877C306.255 335.786 299.815 333.678 298.926 333.191C298.038 332.706 290.641 329.793 282.489 326.72C274.337 323.646 266.28 320.505 264.585 319.739C259.63 317.498 239.945 311.551 233.086 310.222C224.901 308.635 196.238 308.625 186.4 310.205C170.042 312.833 150.063 318.59 135.289 324.934C130.083 327.17 108.265 338.648 100.533 343.219C96.8789 345.379 92.8432 347.601 91.5654 348.155C90.2876 348.709 86.7139 350.737 83.6237 352.662C80.5336 354.586 77.7807 356.16 77.5068 356.16C76.7503 356.16 53.8014 370.889 48.4767 374.791C38.0336 382.446 36.3909 383.799 29.4286 390.487C15.2228 404.132 8.6836 416.947 5.9512 436.487C2.65147 460.095 -0.236311 472.997 -4.01342 481.005C-5.82684 484.85 -9.26662 490.342 -11.6556 493.207C-16 498.417 -16 498.417 -16 542.709C-16 587 -16 587 36.4952 587C88.9904 587 88.9904 587 91.638 584.612C93.0936 583.299 98.3356 579.386 103.287 575.918C108.238 572.449 112.519 569.383 112.8 569.102C113.081 568.821 116.301 566.619 119.956 564.209C141.146 550.225 154.286 538.237 160.406 527.3C161.478 525.385 162.899 523.146 163.564 522.325C164.228 521.504 165.741 518.37 166.926 515.36C168.109 512.35 169.518 508.992 170.056 507.898C170.593 506.803 173.591 498.743 176.716 489.987C183.424 471.197 187.956 463.287 194.546 458.864C201.479 454.211 204.843 453.381 214.867 453.847C223.037 454.228 224.327 454.582 230.239 458.079C239.095 463.315 244.857 471.019 247.18 480.73C248.137 484.727 249.329 489.117 249.83 490.485C252.14 496.793 253.059 514.553 251.769 527.959C251.064 535.297 250.097 541.535 249.62 541.822C248.44 542.532 248.519 566.699 249.71 568.855C250.235 569.805 251.181 572.784 251.812 575.476C252.444 578.166 253.601 581.861 254.384 583.685C255.807 587 255.807 587 393.69 587C531.573 587 531.573 587 534.179 584.264C535.613 582.758 541.011 577.498 546.175 572.573C560.409 558.998 571.134 545.232 577.573 532.275C579.068 529.265 580.608 526.579 580.994 526.305C581.381 526.031 582.669 523.345 583.856 520.335C588.644 508.204 594.168 495.735 596.451 491.901C605.014 477.519 621.583 467.905 647.933 462.027C664.01 458.441 697.805 458.465 717.197 462.078C735.016 465.397 771.071 474.285 779.547 477.448C786.988 480.225 812.497 484.514 821.501 484.503C831.714 484.49 851.667 480.584 862.089 476.557C865.181 475.363 869.781 473.709 872.311 472.883C874.841 472.058 878.291 470.775 879.978 470.032C885.183 467.74 904.208 461.878 910.133 460.74C921.332 458.589 936.666 456.568 960.222 454.139C973.435 452.776 987.004 451.225 990.378 450.691C993.751 450.158 1003.41 448.812 1011.84 447.702C1020.28 446.592 1029.25 445.261 1031.78 444.746C1034.31 444.23 1041.9 442.712 1048.64 441.371C1074.78 436.177 1100.68 426.644 1113.9 417.353C1121.98 411.669 1132.42 403.714 1140.6 397.005C1145.63 392.872 1153.22 386.922 1157.46 383.781C1161.71 380.64 1165.64 377.724 1166.2 377.301C1173.81 371.573 1192.9 362.36 1201.47 360.282C1222.35 355.216 1232.47 354.871 1247.98 358.702C1261.68 362.086 1267.55 365.082 1292.32 381.322C1304.67 389.422 1322.44 396.979 1338.44 400.94C1369.09 408.525 1377.72 411.254 1388.53 416.791C1415.81 430.756 1438.05 441.73 1439.07 441.73C1439.37 441.73 1443.3 443.715 1447.81 446.141C1456 450.551 1456 450.551 1456 289.428C1456 200.811 1455.65 128.321 1455.23 128.341C1454.81 128.361 1452.17 129.199 1449.36 130.203ZM1210.67 390.02C1202.62 391.656 1189.64 399.078 1180.52 407.255C1170.06 416.635 1155.26 425.88 1142.07 431.273C1110.74 444.079 1089.49 448.686 994.978 463.159C986.263 464.494 976.373 466.237 973 467.032C969.627 467.827 961.807 469.215 955.622 470.117C940.737 472.287 913.849 478.217 908.654 480.474C906.376 481.464 902.671 482.842 900.422 483.538C896.788 484.66 882.416 491.111 866.178 498.907C863.086 500.39 855.386 503.368 849.068 505.523C829.727 512.12 813.304 511.93 790.687 504.849C784.7 502.973 778.88 501.007 777.756 500.479C769.366 496.538 744.877 487.789 730.222 483.498C724.881 481.935 718.901 480.172 716.933 479.58C703.207 475.453 672.782 474.143 658.289 477.057C647.456 479.236 636.847 484.231 629.7 490.522C623.188 496.253 620.344 499.977 612.653 512.837C606.268 523.516 605.577 524.724 602.392 530.783C600.667 534.066 597.47 539.663 595.289 543.22C593.108 546.777 590.129 551.702 588.668 554.165C579.26 570.028 574.499 577.48 570.23 583.02C567.547 586.503 567.547 586.502 944.878 586.752C1322.21 587.003 1322.21 587.003 1331.09 579.824C1357.44 558.542 1370.08 546.236 1380.47 531.778C1384.72 525.856 1391.79 513.276 1393.61 508.395C1394.32 506.48 1395.51 503.569 1396.25 501.927C1398.49 496.925 1400.05 485.779 1399.31 480.008C1397.47 465.67 1383.11 449.707 1362.98 439.618C1349.94 433.083 1341.34 430.116 1315.96 423.402C1302.78 419.917 1287.45 414.987 1281.43 412.298C1278.46 410.974 1275.68 409.89 1275.25 409.89C1274.82 409.89 1266.79 406.132 1257.42 401.539C1248.05 396.945 1238.18 392.451 1235.49 391.55C1229.48 389.539 1216.85 388.761 1210.67 390.02ZM1447.03 506.654C1435.85 519.147 1395.08 558.143 1383.31 567.611C1376.98 572.697 1363.47 582.45 1358.24 585.698C1356.75 586.624 1367.21 586.896 1406.17 586.941C1456 587 1456 587 1456 542.225C1456 517.599 1455.84 497.45 1455.64 497.45C1455.44 497.45 1451.56 501.592 1447.03 506.654ZM186.911 546.097C184.662 547.131 177.391 550.488 170.752 553.559C164.114 556.629 158.399 559.14 158.055 559.14C157.71 559.14 156.701 559.722 155.814 560.432C154.926 561.143 151.67 562.818 148.578 564.153C145.486 565.489 142.726 566.858 142.444 567.197C142.163 567.536 139.703 568.766 136.978 569.931C134.251 571.096 126.431 575.302 119.6 579.276C107.178 586.503 107.178 586.503 168.418 586.759C202.1 586.901 229.868 586.812 230.124 586.562C230.38 586.312 229.342 583.958 227.815 581.331C226.288 578.703 222.21 571.239 218.753 564.745C215.213 558.096 210.586 551.032 208.16 548.576C203.969 544.331 203.683 544.215 197.427 544.216C193.25 544.216 189.569 544.875 186.911 546.097Z" fill="url(#paint0_linear_137_2)"/>
</mask>
<g mask="url(#mask0_137_2)">
<path fill-rule="evenodd" clip-rule="evenodd" d="M0 0H1440V454.575C1229 549.511 1245.5 369.911 743 413.429C349.267 447.528 240 581.17 0 549.511C0 334.914 0 0 0 0Z" fill="#36454F"/>
</g>
<defs>
<linearGradient id="paint0_linear_137_2" x1="720" y1="636" x2="720" y2="-10.0001" gradientUnits="userSpaceOnUse">
<stop stop-color="#AA4A44"/>
<stop offset="0.354207" stop-color="#982A34"/>
<stop offset="1" stop-color="#800020"/>
</linearGradient>
</defs>
</svg>
