<svg xmlns="http://www.w3.org/2000/svg" version="1.1" xmlns:xlink="http://www.w3.org/1999/xlink" xmlns:svgjs="http://svgjs.dev/svgjs" width="260" height="150" viewBox="0 0 1000 623"><g transform="matrix(1,0,0,1,-0.6060606060606233,0.2522267206477409)"><svg viewBox="0 0 396 247" data-background-color="#398378" preserveAspectRatio="xMidYMid meet" height="623" width="1000" xmlns="http://www.w3.org/2000/svg" xmlns:xlink="http://www.w3.org/1999/xlink"><g id="tight-bounds" transform="matrix(1,0,0,1,0.2400000000000091,-0.09999999999999432)"><svg viewBox="0 0 395.52 247.2" height="247.2" width="395.52"><g><svg></svg></g><g><svg viewBox="0 0 395.52 247.2" height="247.2" width="395.52"><g><g><path xmlns="http://www.w3.org/2000/svg" d="M84.177 232.056c-16.073-10.051-28.636-24.426-37.691-43.125-5.894-12.141-9.869-25.606-11.927-40.393l39.859 0c2.844 15.537 8.542 28.775 17.094 39.714 12.767 16.435 30.696 24.652 53.786 24.652 14.035 0 28.184-3.396 42.445-10.186l4.075 34.295c-14.714 6.791-32.032 10.187-51.953 10.187-21.053 0-39.615-5.048-55.688-15.144zM46.69 58.404c9.145-18.789 21.822-33.232 38.03-43.328 16.163-10.051 34.431-15.076 54.805-15.076 18.789 0 36.22 3.509 52.293 10.526l-4.075 34.636c-7.244-3.622-14.194-6.338-20.849-8.15-6.701-1.811-13.899-2.716-21.596-2.716-23.09 0-41.019 8.195-53.786 24.584-8.553 10.971-14.251 24.232-17.095 39.782l-39.809 0c2.095-14.656 6.123-28.076 12.082-40.258zM245.332 243.329c-12.134-2.626-22.275-5.976-30.424-10.051l4.414-39.389c21.505 12.677 43.011 19.015 64.517 19.015 12.677 0 22.592-2.558 29.745-7.674 7.108-5.071 10.662-12.473 10.662-22.207 0-10.413-3.667-18.902-11.001-25.467-3.211-2.856-7.48-5.862-12.807-9.018l54.48 0c5.132 9.038 7.699 19.627 7.699 31.769 0 20.6-7.244 36.899-21.732 48.896-14.488 11.998-34.522 17.997-60.102 17.997-11.545 0-23.362-1.29-35.451-3.871zM220.001 95.756c-4.754-8.376-7.131-18.563-7.131-30.56 0-12.903 3.282-24.29 9.848-34.16 6.565-9.825 15.801-17.453 27.708-22.887 11.862-5.433 25.716-8.149 41.562-8.149 21.505 0 41.54 4.414 60.102 13.243l-3.735 37.691c-20.147-11.092-39.842-16.638-59.083-16.638-11.998 0-21.279 2.377-27.844 7.13-6.565 4.754-9.847 12.111-9.848 22.072 0 7.018 1.924 12.903 5.773 17.657 3.848 4.754 8.942 8.874 15.28 12.36 2.616 1.457 5.887 3.173 9.814 5.147l-60.687 0c-0.613-0.951-1.199-1.92-1.759-2.906z" fill="#BFD382" fill-rule="nonzero" stroke="none" stroke-width="1" stroke-linecap="butt" stroke-linejoin="miter" stroke-miterlimit="10" stroke-dasharray="" stroke-dashoffset="0" font-family="none" font-weight="none" font-size="none" text-anchor="none" style="mix-blend-mode: normal" data-fill-palette-color="tertiary"></path></g></g><g transform="matrix(1,0,0,1,2.842170943040401e-14,105.01237696102852)"><svg viewBox="0 0 395.5199999999999 37.17524607794295" height="37.17524607794295" width="395.5199999999999"><g><svg viewBox="0 0 442.6728646998175 41.607182132998744" height="37.17524607794295" width="395.5199999999999"><g transform="matrix(1,0,0,1,0,5.750341380175659)"><svg viewBox="0 0 395.52 30.106499372647427" height="30.106499372647427" width="395.52"><g><svg viewBox="0 0 395.52 30.106499372647427" height="30.106499372647427" width="395.52"><g><svg viewBox="0 0 395.52 30.106499372647427" height="30.106499372647427" width="395.52"><g transform="matrix(1,0,0,1,0,0)"><svg width="395.52" viewBox="1.5 -35.70000076293945 478.1600036621094 36.400001525878906" height="30.106499372647427" data-palette-color="#31c48d"><path d="M17.25 0.7Q12.6 0.7 9.05-1.53 5.5-3.75 3.5-7.88 1.5-12 1.5-17.5L1.5-17.5Q1.5-22.95 3.53-27.1 5.55-31.25 9.13-33.48 12.7-35.7 17.2-35.7L17.2-35.7Q21.35-35.7 24.9-34.15L24.9-34.15 24.3-29.05Q22.7-29.85 21.23-30.25 19.75-30.65 18.05-30.65L18.05-30.65Q12.95-30.65 10.13-27.03 7.3-23.4 7.3-17.5L7.3-17.5Q7.3-11.6 10.13-7.98 12.95-4.35 18.05-4.35L18.05-4.35Q21.15-4.35 24.3-5.85L24.3-5.85 24.9-0.8Q21.65 0.7 17.25 0.7L17.25 0.7ZM41.9 0.7Q37.6 0.7 34.22-1.55 30.85-3.8 28.95-7.93 27.05-12.05 27.05-17.5L27.05-17.5Q27.05-22.95 28.95-27.08 30.85-31.2 34.22-33.45 37.6-35.7 41.9-35.7L41.9-35.7Q46.2-35.7 49.55-33.45 52.9-31.2 54.8-27.08 56.7-22.95 56.7-17.5L56.7-17.5Q56.7-12.05 54.8-7.93 52.9-3.8 49.55-1.55 46.2 0.7 41.9 0.7L41.9 0.7ZM41.9-4.55Q46.35-4.55 48.75-8.15 51.15-11.75 51.15-17.5L51.15-17.5Q51.15-23.25 48.75-26.85 46.35-30.45 41.9-30.45L41.9-30.45Q37.45-30.45 35.05-26.85 32.65-23.25 32.65-17.5L32.65-17.5Q32.65-11.75 35.05-8.15 37.45-4.55 41.9-4.55L41.9-4.55ZM61.5 0L61.5-35 67.15-35 80-11.05 80-35 85.2-35 85.2 0 80.5 0 66.75-25.4 66.75 0 61.5 0ZM100.29 0.7Q97.74 0.7 95.07 0.13 92.39-0.45 90.59-1.35L90.59-1.35 91.24-7.15Q95.99-4.35 100.74-4.35L100.74-4.35Q103.54-4.35 105.12-5.48 106.69-6.6 106.69-8.75L106.69-8.75Q106.69-11.05 105.07-12.5 103.44-13.95 99.34-15.75L99.34-15.75Q96.19-17.15 94.29-18.45 92.39-19.75 91.34-21.6 90.29-23.45 90.29-26.1L90.29-26.1Q90.29-28.95 91.74-31.13 93.19-33.3 95.82-34.5 98.44-35.7 101.94-35.7L101.94-35.7Q106.69-35.7 110.79-33.75L110.79-33.75 110.24-28.2Q105.79-30.65 101.54-30.65L101.54-30.65Q98.89-30.65 97.44-29.6 95.99-28.55 95.99-26.35L95.99-26.35Q95.99-24.8 96.84-23.75 97.69-22.7 99.09-21.93 100.49-21.15 103.59-19.7L103.59-19.7Q108.14-17.55 110.24-15.18 112.34-12.8 112.34-9.15L112.34-9.15Q112.34-4.6 109.14-1.95 105.94 0.7 100.29 0.7L100.29 0.7ZM122.89 0L122.89-30.2 114.29-30.2 114.29-35 136.69-35 136.69-30.2 128.09-30.2 128.09 0 122.89 0ZM140.79 0L140.79-35 150.29-35Q155.79-35 158.89-32.3 161.99-29.6 161.99-24.25L161.99-24.25Q161.99-21.15 160.61-18.7 159.24-16.25 156.79-14.9L156.79-14.9 163.64 0 157.59 0 151.59-13.4Q151.29-13.35 150.44-13.35L150.44-13.35 146.04-13.35 146.04 0 140.79 0ZM146.04-18L149.84-18Q153.24-18 154.89-19.53 156.54-21.05 156.54-24.15L156.54-24.15Q156.54-27.3 154.89-28.83 153.24-30.35 149.84-30.35L149.84-30.35 146.04-30.35 146.04-18ZM179.79 0.7Q173.49 0.7 170.39-3.08 167.29-6.85 167.29-13.7L167.29-13.7 167.29-35 172.54-35 172.54-15.15Q172.54-9.9 174.01-7.13 175.49-4.35 179.79-4.35L179.79-4.35Q182.74-4.35 184.34-5.73 185.94-7.1 186.49-9.43 187.04-11.75 187.04-15.15L187.04-15.15 187.04-35 192.29-35 192.29-13.7Q192.29-6.85 189.19-3.08 186.09 0.7 179.79 0.7L179.79 0.7ZM212.48 0.7Q207.83 0.7 204.28-1.53 200.73-3.75 198.73-7.88 196.73-12 196.73-17.5L196.73-17.5Q196.73-22.95 198.76-27.1 200.78-31.25 204.36-33.48 207.93-35.7 212.43-35.7L212.43-35.7Q216.58-35.7 220.13-34.15L220.13-34.15 219.53-29.05Q217.93-29.85 216.46-30.25 214.98-30.65 213.28-30.65L213.28-30.65Q208.18-30.65 205.36-27.03 202.53-23.4 202.53-17.5L202.53-17.5Q202.53-11.6 205.36-7.98 208.18-4.35 213.28-4.35L213.28-4.35Q216.38-4.35 219.53-5.85L219.53-5.85 220.13-0.8Q216.88 0.7 212.48 0.7L212.48 0.7ZM230.73 0L230.73-30.2 222.13-30.2 222.13-35 244.53-35 244.53-30.2 235.93-30.2 235.93 0 230.73 0ZM248.63 0L248.63-35 253.88-35 253.88 0 248.63 0ZM273.63 0.7Q269.33 0.7 265.95-1.55 262.58-3.8 260.68-7.93 258.78-12.05 258.78-17.5L258.78-17.5Q258.78-22.95 260.68-27.08 262.58-31.2 265.95-33.45 269.33-35.7 273.63-35.7L273.63-35.7Q277.93-35.7 281.28-33.45 284.63-31.2 286.53-27.08 288.43-22.95 288.43-17.5L288.43-17.5Q288.43-12.05 286.53-7.93 284.63-3.8 281.28-1.55 277.93 0.7 273.63 0.7L273.63 0.7ZM273.63-4.55Q278.08-4.55 280.48-8.15 282.88-11.75 282.88-17.5L282.88-17.5Q282.88-23.25 280.48-26.85 278.08-30.45 273.63-30.45L273.63-30.45Q269.18-30.45 266.78-26.85 264.38-23.25 264.38-17.5L264.38-17.5Q264.38-11.75 266.78-8.15 269.18-4.55 273.63-4.55L273.63-4.55ZM293.22 0L293.22-35 298.87-35 311.72-11.05 311.72-35 316.92-35 316.92 0 312.22 0 298.47-25.4 298.47 0 293.22 0ZM341.72 0.7Q339.17 0.7 336.49 0.13 333.82-0.45 332.02-1.35L332.02-1.35 332.67-7.15Q337.42-4.35 342.17-4.35L342.17-4.35Q344.97-4.35 346.54-5.48 348.12-6.6 348.12-8.75L348.12-8.75Q348.12-11.05 346.49-12.5 344.87-13.95 340.77-15.75L340.77-15.75Q337.62-17.15 335.72-18.45 333.82-19.75 332.77-21.6 331.72-23.45 331.72-26.1L331.72-26.1Q331.72-28.95 333.17-31.13 334.62-33.3 337.24-34.5 339.87-35.7 343.37-35.7L343.37-35.7Q348.12-35.7 352.22-33.75L352.22-33.75 351.67-28.2Q347.22-30.65 342.97-30.65L342.97-30.65Q340.32-30.65 338.87-29.6 337.42-28.55 337.42-26.35L337.42-26.35Q337.42-24.8 338.27-23.75 339.12-22.7 340.52-21.93 341.92-21.15 345.02-19.7L345.02-19.7Q349.57-17.55 351.67-15.18 353.77-12.8 353.77-9.15L353.77-9.15Q353.77-4.6 350.57-1.95 347.37 0.7 341.72 0.7L341.72 0.7ZM364.32 0L364.32-30.2 355.72-30.2 355.72-35 378.12-35 378.12-30.2 369.52-30.2 369.52 0 364.32 0ZM397.81 0L395.16-9 384.71-9 382.11 0 376.71 0 387.41-35 392.51-35 403.21 0 397.81 0ZM386.11-13.85L393.76-13.85 389.96-26.95 386.11-13.85ZM410.41 0L410.41-30.2 401.81-30.2 401.81-35 424.21-35 424.21-30.2 415.61-30.2 415.61 0 410.41 0ZM440.36 0.7Q434.06 0.7 430.96-3.08 427.86-6.85 427.86-13.7L427.86-13.7 427.86-35 433.11-35 433.11-15.15Q433.11-9.9 434.58-7.13 436.06-4.35 440.36-4.35L440.36-4.35Q443.31-4.35 444.91-5.73 446.51-7.1 447.06-9.43 447.61-11.75 447.61-15.15L447.61-15.15 447.61-35 452.86-35 452.86-13.7Q452.86-6.85 449.76-3.08 446.66 0.7 440.36 0.7L440.36 0.7ZM467.61 0.7Q465.06 0.7 462.38 0.13 459.71-0.45 457.91-1.35L457.91-1.35 458.56-7.15Q463.31-4.35 468.06-4.35L468.06-4.35Q470.86-4.35 472.43-5.48 474.01-6.6 474.01-8.75L474.01-8.75Q474.01-11.05 472.38-12.5 470.76-13.95 466.66-15.75L466.66-15.75Q463.51-17.15 461.61-18.45 459.71-19.75 458.66-21.6 457.61-23.45 457.61-26.1L457.61-26.1Q457.61-28.95 459.06-31.13 460.51-33.3 463.13-34.5 465.76-35.7 469.26-35.7L469.26-35.7Q474.01-35.7 478.11-33.75L478.11-33.75 477.56-28.2Q473.11-30.65 468.86-30.65L468.86-30.65Q466.21-30.65 464.76-29.6 463.31-28.55 463.31-26.35L463.31-26.35Q463.31-24.8 464.16-23.75 465.01-22.7 466.41-21.93 467.81-21.15 470.91-19.7L470.91-19.7Q475.46-17.55 477.56-15.18 479.66-12.8 479.66-9.15L479.66-9.15Q479.66-4.6 476.46-1.95 473.26 0.7 467.61 0.7L467.61 0.7Z" opacity="1" transform="matrix(1,0,0,1,0,0)" fill="#B2AC88" class="undefined-text-0" data-fill-palette-color="primary" id="text-0"></path></svg></g></svg></g></svg></g></svg></g><g transform="matrix(1,0,0,1,402.6274219458971,0)"><svg viewBox="0 0 40.0454427539204 41.607182132998744" height="41.607182132998744" width="40.0454427539204"><g><svg xmlns="http://www.w3.org/2000/svg" xmlns:xlink="http://www.w3.org/1999/xlink" version="1.1" x="0" y="0" viewBox="1.865009069442749 0.5 68.33499145507812 71" enable-background="new 0 0 72 72" xml:space="preserve" height="41.607182132998744" width="40.0454427539204" class="icon-icon-0" data-fill-palette-color="accent" id="icon-0"><path fill="#c9efc7" d="M68.4 58.6c-2.6 0.1-5.1 0-7.8 0-0.3 0-0.5-0.2-0.5-0.5v-2.2c0-0.3 0.2-0.5 0.5-0.5 1.3 0 2.6 0 4 0 3.6 0 4.5-1.3 4.2-5.5-0.4-6-0.2-12.1 0-18.1 0.2-4.8-3.4-4.9-3.4-4.9H55.1c-0.6-0.1-1.2-0.1-1.7 0h-0.1v0c-1.6 0.2-2.8 0.9-3.7 2.4-0.1 0.2-0.3 0.4-0.5 0.6-0.4 0.4-1 0.5-1.5 0.1C36.3 20.1 25.1 10.3 13.9 0.5h-1.2C11.5 1.7 10.4 2.8 9.2 4 8.3 4.9 8.3 5.8 9.1 6.7c0 0 0.1 0.1 0.1 0.1 3.1 2.5 3.6 5.7 3.5 9.5-0.3 6.7-0.1 6.4-0.1 13.1v0.7c0 0.6-0.5 1.1-1.1 1.1-2.1 0-4.2 0-6.3 0-2.9 0-3.5 0.9-3.3 4.3 0.3 4.8 0.2 9.6 0 14.4-0.1 2.6 0.6 3.6 3 3.6 6.7 0 13.4 0 20.1 0 2.4 0 3.1-0.9 3-3.5-0.2-4.9-0.3-9.9 0-14.8 0.2-3-0.5-3.9-3-4-2.1 0-4.3 0-6.5 0-0.6 0-1.1-0.5-1.1-1.1v-14c7.3 8.3 14.4 16.4 21.6 24.6 0.4 0.4 0.3 1 0 1.4-2.7 2.8-1.5 6.5-1.6 9.9-0.1 2.1 1.2 3.2 3.4 3.3 1.6 0 3.1 0 4.7 0 0.3 0 0.6 0.2 0.6 0.5V58c0 0.3-0.2 0.5-0.5 0.5-3.7 0-16.6 0-19.2 0-1.3 0-1.8 0.4-1.8 1.8 0 3.7 0 7.4 0 11.2h45.6c0-3.7 0-7.4 0-11.1C70.2 59 69.7 58.5 68.4 58.6zM17.7 48.8H7.1c-0.3 0-0.5-0.2-0.5-0.5v-8.7c0-0.4 0.5-0.6 0.8-0.4 3.6 2.9 7 5.7 10.6 8.7C18.3 48.2 18.1 48.8 17.7 48.8zM22.8 36c0.3 0 0.5 0.2 0.5 0.5v8.8c0 0.4-0.5 0.6-0.8 0.4-3.6-2.9-7-5.8-10.7-8.8-0.4-0.3-0.2-0.9 0.3-0.9H22.8zM45.8 46.4c-0.8 0-1.3-0.9-0.8-1.6 2.1-2.7 6.4-8 8.8-10.8 0.4-0.5 1.1-0.9 1.8-0.9 2-0.1 3.9-0.1 5.9-0.1 0.5 0 1 0.4 1 1v11.4c0 0.5-0.4 1-1 1H45.8z" data-fill-palette-color="accent"></path></svg></g></svg></g></svg></g></svg></g></svg></g><defs></defs></svg><rect width="395.52" height="247.2" fill="none" stroke="none" visibility="hidden"></rect></g></svg></g></svg>